<svg width="215.820435" height="324.360016" viewBox="0 0 215.82 324.36" fill="none" xmlns="http://www.w3.org/2000/svg" xmlns:xlink="http://www.w3.org/1999/xlink">
	<desc>
			Created with Pixso.
	</desc>
	<path id="path" d="M76.0304 0.702026L96.8304 0.702026L96.8304 119.272L87.0304 119.272C85.5717 119.272 84.1686 118.993 82.8209 118.435C81.4733 117.876 80.2837 117.082 79.2523 116.05C78.2208 115.019 77.426 113.829 76.8678 112.482C76.3095 111.134 76.0304 109.731 76.0304 108.272L76.0304 0.702026Z" fill-rule="nonzero" fill="#FFFFFF"/>
	<path id="path" d="M208.82 314.172L7.40043 314.172C6.46462 314.171 5.56456 313.991 4.70023 313.632C3.83591 313.273 3.0729 312.763 2.41118 312.101C1.74947 311.44 1.23924 310.677 0.880508 309.812C0.521782 308.948 0.341751 308.048 0.340424 307.112L0.340424 7.26203C0.341751 6.32622 0.521774 5.42615 0.880508 4.56183C1.23923 3.69751 1.74946 2.93449 2.41118 2.27277C3.07289 1.61105 3.83591 1.10083 4.70023 0.7421C5.56456 0.383373 6.46462 0.203346 7.40043 0.202026L208.82 0.202026C209.751 0.209904 210.646 0.394726 211.504 0.756481C212.362 1.11824 213.118 1.6297 213.774 2.29084C214.429 2.95199 214.934 3.71304 215.289 4.57399C215.643 5.43494 215.82 6.33095 215.82 7.26203L215.82 307.112C215.82 308.043 215.643 308.939 215.289 309.8C214.934 310.661 214.429 311.422 213.774 312.083C213.118 312.744 212.362 313.256 211.504 313.617C210.646 313.979 209.751 314.164 208.82 314.172ZM7.40043 3.19202C6.27653 3.19202 5.31722 3.58938 4.52251 4.3841C3.72779 5.17882 3.33043 6.13813 3.33043 7.26203L3.33043 307.112C3.33043 308.236 3.72779 309.195 4.52251 309.99C5.31722 310.785 6.27653 311.182 7.40043 311.182L208.82 311.182C209.943 311.179 210.902 310.781 211.695 309.987C212.489 309.193 212.888 308.235 212.89 307.112L212.89 7.26203C212.888 6.13926 212.489 5.18092 211.695 4.38701C210.902 3.59309 209.943 3.19477 208.82 3.19202L7.40043 3.19202Z" fill-rule="nonzero" fill="#4F61CD"/>
	<path id="path" d="M76.69 108.1L76.69 1.29L74.69 1.29L74.69 108.1C74.6887 109.66 74.9862 111.161 75.5825 112.602C76.1788 114.043 77.0285 115.316 78.1315 116.419C79.2345 117.522 80.5067 118.371 81.9481 118.968C83.3895 119.564 84.8901 119.861 86.45 119.86L88.45 119.86C86.8905 119.86 85.3904 119.562 83.9496 118.965C82.5089 118.368 81.2371 117.518 80.1344 116.416C79.0317 115.313 78.182 114.041 77.5852 112.6C76.9884 111.16 76.69 109.659 76.69 108.1Z" fill-rule="nonzero" fill="#FFFFFF"/>
	<rect id="rect" x="60.650002" y="1.290009" width="0.750000" height="310.980011" fill="#4F61CD"/>
	<g opacity="0.410000">
		<rect id="rect" x="12.770004" y="26.959999" width="36.090004" height="1.419998" fill="#4F61CD"/>
	</g>
	<g opacity="0.410000">
		<rect id="rect" x="12.770004" y="37.910000" width="36.090004" height="1.419998" fill="#4F61CD"/>
	</g>
	<g opacity="0.410000">
		<rect id="rect" x="12.770004" y="48.860001" width="36.090004" height="1.419998" fill="#4F61CD"/>
	</g>
	<g opacity="0.410000">
		<rect id="rect" x="12.770004" y="59.809998" width="36.090004" height="1.419998" fill="#4F61CD"/>
	</g>
	<g opacity="0.410000">
		<rect id="rect" x="12.770004" y="70.769997" width="36.090004" height="1.419998" fill="#4F61CD"/>
	</g>
	<g opacity="0.410000">
		<rect id="rect" x="12.770004" y="81.720001" width="36.090004" height="1.419998" fill="#4F61CD"/>
	</g>
	<g opacity="0.410000">
		<rect id="rect" x="12.770004" y="92.669998" width="36.090004" height="1.419998" fill="#4F61CD"/>
	</g>
	<g opacity="0.410000">
		<rect id="rect" x="12.770004" y="103.620003" width="36.090004" height="1.419998" fill="#4F61CD"/>
	</g>
	<g opacity="0.410000">
		<rect id="rect" x="12.770004" y="114.570000" width="36.090004" height="1.419998" fill="#4F61CD"/>
	</g>
	<g opacity="0.410000">
		<rect id="rect" x="12.770004" y="196.100006" width="36.090004" height="1.419998" fill="#4F61CD"/>
	</g>
	<g opacity="0.410000">
		<rect id="rect" x="12.770004" y="207.050018" width="36.090004" height="1.419998" fill="#4F61CD"/>
	</g>
	<g opacity="0.410000">
		<rect id="rect" x="12.770004" y="218.010010" width="36.090004" height="1.419998" fill="#4F61CD"/>
	</g>
	<g opacity="0.410000">
		<rect id="rect" x="12.770004" y="228.960022" width="36.090004" height="1.419998" fill="#4F61CD"/>
	</g>
	<g opacity="0.410000">
		<rect id="rect" x="12.770004" y="239.910004" width="36.090004" height="1.419998" fill="#4F61CD"/>
	</g>
	<g opacity="0.410000">
		<rect id="rect" x="12.770004" y="250.859985" width="36.090004" height="1.420013" fill="#4F61CD"/>
	</g>
	<g opacity="0.410000">
		<rect id="rect" x="12.770004" y="261.809998" width="36.090004" height="1.420013" fill="#4F61CD"/>
	</g>
	<g opacity="0.410000">
		<rect id="rect" x="12.770004" y="272.760010" width="36.090004" height="1.420013" fill="#4F61CD"/>
	</g>
	<g opacity="0.410000">
		<rect id="rect" x="12.770004" y="283.719971" width="36.090004" height="1.420013" fill="#4F61CD"/>
	</g>
	<path id="path" d="M72.46 160.77L65.61 160.77L65.61 135.61L72.46 135.61L72.46 160.77ZM66.17 160.21L71.9 160.21L71.9 136.21L66.17 136.21L66.17 160.21Z" fill-rule="nonzero" fill="#4F61CD"/>
	<path id="path" d="M56 160.77L49.15 160.77L49.15 135.61L56 135.61L56 160.77ZM49.71 160.21L55.44 160.21L55.44 136.21L49.7 136.21L49.71 160.21Z" fill-rule="nonzero" fill="#4F61CD"/>
	<rect id="rect" x="4.649994" y="312.260010" width="205.850006" height="12.100006" fill="#4F61CD"/>
	<path id="path" d="M91 67L83.73 67L83.73 63.87L89.03 62.28L83.73 60.7L83.73 57.58L91 57.58L91 59.41L85.38 59.41L85.38 59.61L90.67 61.37L90.67 63.2L85.33 65L85.33 65.2L91 65.2L91 67Z" fill-rule="nonzero" fill="#4F61CD"/>
	<path id="path" d="M91 26.68C90.9623 26.9935 90.9056 27.3035 90.83 27.61C90.7633 27.9388 90.6467 28.2488 90.48 28.54C90.3346 28.7995 90.1346 29.0061 89.88 29.16C89.5996 29.3395 89.2929 29.4262 88.96 29.42L85.8 29.42C84.36 29.42 83.63 28.18 83.63 25.71C83.6488 24.8537 83.7321 24.0037 83.88 23.16L85.17 23.16C84.982 23.9896 84.8786 24.8296 84.86 25.68C84.86 25.99 84.86 26.22 84.86 26.39C84.8831 26.5705 84.9231 26.7472 84.98 26.92C85.0755 27.3345 85.3355 27.5279 85.76 27.5L88.82 27.5C89.47 27.5 89.82 26.83 89.82 25.5C89.7932 24.6893 89.6865 23.8893 89.5 23.1L90.81 23.1C90.9676 23.9595 91.0476 24.8262 91.05 25.7C91.0675 26.0333 91.0175 26.3467 91 26.68Z" fill-rule="evenodd" fill="#4F61CD"/>
	<path id="polygon" d="M83.69 37.24L83.69 31.02L84.92 31.02L84.92 35.32L86.57 35.32L86.57 31.54L87.8 31.54L87.8 35.32L89.65 35.32L89.65 30.9L90.88 30.9L90.88 37.24L83.69 37.24Z" fill-rule="nonzero" fill="#4F61CD"/>
	<path id="polygon" d="M83.69 83.81L83.69 77.59L84.92 77.59L84.92 81.88L86.57 81.88L86.57 78.11L87.8 78.11L87.8 81.88L89.65 81.88L89.65 77.47L90.88 77.47L90.88 83.81L83.69 83.81Z" fill-rule="nonzero" fill="#4F61CD"/>
	<path id="path" d="M84.84 88.75C84.84 89.75 85.1 90.2 85.62 90.2C85.8754 90.1986 86.0488 90.0786 86.14 89.84C86.3668 89.2958 86.5435 88.7358 86.67 88.16C86.8072 87.4885 87.0672 86.8685 87.45 86.3C87.8096 85.9032 88.2563 85.7266 88.79 85.77C89.5248 85.7386 90.1014 86.0252 90.52 86.63C90.9582 87.3237 91.1582 88.0804 91.12 88.9C91.1025 89.7537 91.0158 90.6004 90.86 91.44L90.78 91.92L89.63 91.73C89.76 90.54 89.83 89.63 89.83 89C89.83 88.06 89.51 87.59 88.83 87.59C88.5831 87.5872 88.4064 87.6972 88.3 87.92C88.103 88.3349 87.963 88.7682 87.88 89.22C87.745 90.0014 87.4617 90.7248 87.03 91.39C86.6896 91.8348 86.2396 92.0448 85.68 92.02C84.9751 92.0631 84.4284 91.7898 84.04 91.2C83.6467 90.4975 83.4701 89.7441 83.51 88.94C83.5247 88.0987 83.5947 87.262 83.72 86.43L83.8 85.96L84.97 86.1C84.9 87.35 84.84 88.24 84.84 88.75Z" fill-rule="nonzero" fill="#4F61CD"/>
	<path id="path" d="M88.49 73.79L91 73.79L91 75.64L83.6 75.64L83.6 72.1C83.6 69.95 84.4 68.87 86.02 68.87C87.0337 68.8379 87.7403 69.2879 88.14 70.22L91 68.91L91 70.91L88.49 72L88.49 73.79ZM86.89 71.09C86.6497 70.8586 86.3631 70.7519 86.03 70.77C85.6976 70.7539 85.4176 70.8673 85.19 71.11C84.9507 71.4009 84.844 71.7342 84.87 72.11L84.87 73.8L87.21 73.8L87.21 72.07C87.2395 71.6989 87.1328 71.3722 86.89 71.09Z" fill-rule="nonzero" fill="#4F61CD"/>
	<ellipse id="circle" cx="84.600006" cy="40.400002" rx="1.070007" ry="1.070000" fill="url(#paint_radial_2_144_0)"/>
	<path id="path" d="M85.69 44.38L90 44.38C90.6651 44.3762 91.0251 44.0428 91.08 43.38C91.0828 43.0798 90.9785 42.7431 90.7673 42.5299C90.556 42.3166 90.3002 42.21 90 42.21L88.45 42.21C87.0377 42.3072 86.1177 43.0305 85.69 44.38Z" fill-rule="nonzero" fill="url(#paint_linear_2_146_0)"/>
	<path id="path" d="M86.26 42.21L85.26 42.21C84.7811 42.2072 84.3724 42.3751 84.0337 42.7137C83.6951 43.0524 83.5272 43.4611 83.53 43.94L83.53 46.53C83.4992 46.8501 83.5919 47.1292 83.8082 47.3673C84.0245 47.6053 84.2934 47.7243 84.615 47.7243C84.9366 47.7243 85.2055 47.6053 85.4218 47.3673C85.638 47.1292 85.7308 46.8501 85.7 46.53L85.7 44.39C85.7 44.28 85.7 44.17 85.7 44.06C85.69 43.3838 85.8766 42.7671 86.26 42.21Z" fill-rule="nonzero" fill="url(#paint_radial_2_147_0)"/>
	<path id="path" d="M88.46 42.21L86.26 42.21C85.8678 42.7606 85.6711 43.374 85.67 44.05C85.67 44.16 85.67 44.27 85.67 44.38C86.1028 43.0175 87.0328 42.2941 88.46 42.21Z" fill-rule="nonzero" fill="url(#paint_linear_2_148_0)"/>
	<path id="path" d="M88.46 42.21L86.26 42.21C85.8678 42.7606 85.6711 43.374 85.67 44.05C85.67 44.16 85.67 44.27 85.67 44.38C86.1028 43.0175 87.0328 42.2941 88.46 42.21Z" fill-rule="nonzero" fill="url(#paint_linear_2_149_0)"/>
	<path id="path" d="M85.69 44.38C85.6229 43.5891 85.8129 42.8658 86.26 42.21C85.7784 42.8567 85.5884 43.5801 85.69 44.38Z" fill-rule="nonzero" fill="#8DFFFF"/>
	<path id="path" d="M85.69 44.38C86.1398 43.065 87.0565 42.3417 88.44 42.21C87.7962 42.2387 87.2213 42.4527 86.7154 42.8519C86.2095 43.2512 85.8677 43.7605 85.69 44.38Z" fill-rule="nonzero" fill="#8DFFFF"/>
	<path id="path" d="M90.91 50.16L90.91 48.21L83.72 51.1L83.72 53.44L90.91 56.44L90.91 54.54L88.72 53.72L88.72 51L90.91 50.16ZM85.16 52.31L87.09 51.59L87.66 51.37L87.66 53.3L85.16 52.31Z" fill-rule="nonzero" fill="#4F61CD"/>
	<defs>
		<radialGradient id="paint_radial_2_144_0" cx="0.000000" cy="0.000000" r="1.000000" gradientUnits="userSpaceOnUse" gradientTransform="translate(84.5982 40.3982) rotate(-90) scale(1.06995 1.06996)">
			<stop stop-color="#72F3B8"/>
			<stop offset="0.270000" stop-color="#6AF0C4"/>
			<stop offset="0.760000" stop-color="#56E8E4"/>
			<stop offset="1.000000" stop-color="#4AE3F6"/>
		</radialGradient>
		<linearGradient id="paint_linear_2_146_0" x1="99.440063" y1="43.289917" x2="85.690063" y2="43.289917" gradientUnits="userSpaceOnUse">
			<stop stop-color="#00BBFF"/>
			<stop offset="0.540000" stop-color="#00BBFF"/>
			<stop offset="1.000000" stop-color="#4C2EEB"/>
		</linearGradient>
		<radialGradient id="paint_radial_2_147_0" cx="0.000000" cy="0.000000" r="1.000000" gradientUnits="userSpaceOnUse" gradientTransform="translate(83.7915 40.3982) rotate(-90) scale(1.06995 0.263199)">
			<stop stop-color="#72F3B8"/>
			<stop offset="0.270000" stop-color="#6AF0C4"/>
			<stop offset="0.760000" stop-color="#56E8E4"/>
			<stop offset="1.000000" stop-color="#4AE3F6"/>
		</radialGradient>
		<linearGradient id="paint_linear_2_148_0" x1="87.070061" y1="54.280029" x2="87.070061" y2="35.929932" gradientUnits="userSpaceOnUse">
			<stop stop-color="#00BBFF"/>
			<stop offset="0.110000" stop-color="#00BBFF"/>
			<stop offset="0.210000" stop-color="#04B3FE"/>
			<stop offset="0.360000" stop-color="#119CFB"/>
			<stop offset="0.550000" stop-color="#2577F5"/>
			<stop offset="0.760000" stop-color="#4044EE"/>
			<stop offset="0.850000" stop-color="#4C2EEB"/>
			<stop offset="1.000000" stop-color="#4C2EEB"/>
		</linearGradient>
		<linearGradient id="paint_linear_2_149_0" x1="87.070068" y1="55.130005" x2="87.070068" y2="33.429928" gradientUnits="userSpaceOnUse">
			<stop stop-color="#27E2CE"/>
			<stop offset="0.380000" stop-color="#2AD6CE"/>
			<stop offset="1.000000" stop-color="#32B9CE"/>
		</linearGradient>
	</defs>
</svg>
