<svg width="242.966736" height="359.721588" viewBox="0 0 242.967 359.722" fill="none" xmlns="http://www.w3.org/2000/svg" xmlns:xlink="http://www.w3.org/1999/xlink">
	<desc>
			Created with Pixso.
	</desc>
	<path id="path" d="M235.085 347.974L8.29819 347.974C7.24452 347.972 6.23111 347.773 5.25793 347.375C4.28476 346.977 3.42564 346.412 2.68059 345.679C1.93553 344.945 1.36105 344.1 0.957138 343.142C0.553238 342.184 0.35054 341.186 0.349045 340.149L0.349045 7.82462C0.350525 6.78748 0.553238 5.78992 0.957138 4.832C1.36105 3.87405 1.93553 3.02841 2.68059 2.29501C3.42564 1.56165 4.28476 0.996155 5.25793 0.598572C6.23111 0.200989 7.24452 0.00146484 8.29819 0L235.085 0C236.133 0.00875854 237.14 0.213593 238.106 0.614532C239.072 1.01547 239.924 1.58231 240.662 2.31506C241.4 3.04779 241.969 3.89127 242.368 4.84546C242.767 5.79965 242.967 6.79272 242.967 7.82462L242.967 340.149C242.967 341.181 242.767 342.174 242.368 343.128C241.969 344.082 241.4 344.926 240.662 345.658C239.924 346.391 239.072 346.958 238.106 347.359C237.14 347.76 236.133 347.965 235.085 347.974ZM8.29819 3.31384C7.03275 3.31384 5.95262 3.75424 5.05782 4.63501C4.16301 5.51581 3.71561 6.57901 3.71561 7.82462L3.71561 340.149C3.71561 341.395 4.16301 342.458 5.05782 343.339C5.95262 344.219 7.03275 344.66 8.29819 344.66L235.085 344.66C236.349 344.657 237.428 344.215 238.322 343.335C239.216 342.455 239.665 341.393 239.668 340.149L239.668 7.82462C239.665 6.58026 239.216 5.51813 238.322 4.63824C237.428 3.75833 236.349 3.31686 235.085 3.31384L8.29819 3.31384Z" fill-rule="nonzero" fill="#747575"/>
	<path id="path" d="M86.6974 1.66248L110.117 1.66248L110.117 133.074L99.0828 133.074C97.4404 133.074 95.8605 132.764 94.3431 132.146C92.8257 131.527 91.4864 130.646 90.325 129.503C89.1637 128.36 88.2687 127.042 87.6402 125.548C87.0117 124.054 86.6974 122.499 86.6974 120.883L86.6974 1.66248Z" fill-rule="nonzero" fill="#747575"/>
	<path id="path" d="M86.3484 120.04L86.3484 1.66248L84.0965 1.66248L84.0965 120.04C84.095 121.769 84.43 123.432 85.1014 125.03C85.7729 126.627 86.7295 128.037 87.9714 129.26C89.2133 130.482 90.6458 131.424 92.2687 132.085C93.8916 132.746 95.5812 133.075 97.3376 133.074L99.5895 133.074C97.8336 133.074 96.1445 132.743 94.5223 132.082C92.9001 131.42 91.4682 130.479 90.2266 129.256C88.985 128.034 88.0283 126.625 87.3563 125.028C86.6844 123.431 86.3484 121.769 86.3484 120.04Z" fill-rule="nonzero" fill="#747575"/>
	<rect id="rect" x="68.288315" y="1.662476" width="0.844455" height="344.659760" fill="#747575"/>
	<g opacity="0.410000">
		<rect id="rect" x="14.378265" y="30.112579" width="40.635204" height="1.573787" fill="#747575"/>
	</g>
	<g opacity="0.410000">
		<rect id="rect" x="14.378265" y="42.248474" width="40.635204" height="1.573787" fill="#747575"/>
	</g>
	<g opacity="0.410000">
		<rect id="rect" x="14.378265" y="54.384384" width="40.635204" height="1.573787" fill="#747575"/>
	</g>
	<g opacity="0.410000">
		<rect id="rect" x="14.378265" y="66.520294" width="40.635204" height="1.573787" fill="#747575"/>
	</g>
	<g opacity="0.410000">
		<rect id="rect" x="14.378265" y="78.667267" width="40.635204" height="1.573787" fill="#747575"/>
	</g>
	<g opacity="0.410000">
		<rect id="rect" x="14.378265" y="90.803192" width="40.635204" height="1.573787" fill="#747575"/>
	</g>
	<g opacity="0.410000">
		<rect id="rect" x="14.378265" y="102.939087" width="40.635204" height="1.573787" fill="#747575"/>
	</g>
	<g opacity="0.410000">
		<rect id="rect" x="14.378265" y="115.074997" width="40.635204" height="1.573787" fill="#747575"/>
	</g>
	<g opacity="0.410000">
		<rect id="rect" x="14.378265" y="127.210907" width="40.635204" height="1.573787" fill="#747575"/>
	</g>
	<g opacity="0.410000">
		<rect id="rect" x="14.378265" y="217.570755" width="40.635204" height="1.573787" fill="#747575"/>
	</g>
	<g opacity="0.410000">
		<rect id="rect" x="14.378265" y="229.706696" width="40.635204" height="1.573787" fill="#747575"/>
	</g>
	<g opacity="0.410000">
		<rect id="rect" x="14.378265" y="241.853668" width="40.635204" height="1.573787" fill="#747575"/>
	</g>
	<g opacity="0.410000">
		<rect id="rect" x="14.378265" y="253.989594" width="40.635204" height="1.573787" fill="#747575"/>
	</g>
	<g opacity="0.410000">
		<rect id="rect" x="14.378265" y="266.125458" width="40.635204" height="1.573787" fill="#747575"/>
	</g>
	<g opacity="0.410000">
		<rect id="rect" x="14.378265" y="278.261414" width="40.635204" height="1.573804" fill="#747575"/>
	</g>
	<g opacity="0.410000">
		<rect id="rect" x="14.378265" y="290.397308" width="40.635204" height="1.573804" fill="#747575"/>
	</g>
	<g opacity="0.410000">
		<rect id="rect" x="14.378265" y="302.533203" width="40.635204" height="1.573804" fill="#747575"/>
	</g>
	<g opacity="0.410000">
		<rect id="rect" x="14.378265" y="314.680176" width="40.635204" height="1.573804" fill="#747575"/>
	</g>
	<path id="path" d="M81.5857 178.414L73.873 178.414L73.873 150.53L81.5857 150.53L81.5857 178.414ZM74.5035 177.794L80.9551 177.794L80.9551 151.195L74.5035 151.195L74.5035 177.794Z" fill-rule="nonzero" fill="#747575"/>
	<path id="path" d="M63.0527 178.414L55.34 178.414L55.34 150.53L63.0527 150.53L63.0527 178.414ZM55.9705 177.794L62.4222 177.794L62.4222 151.195L55.9593 151.195L55.9705 177.794Z" fill-rule="nonzero" fill="#747575"/>
	<rect id="rect" x="5.235641" y="346.311127" width="231.774902" height="13.410460" fill="#747575"/>
	<path id="path" d="M102.461 74.489L94.275 74.489L94.275 71.02L100.242 69.2578L94.275 67.5067L94.275 64.0488L102.461 64.0488L102.461 66.077L96.1328 66.077L96.1328 66.2986L102.089 68.2493L102.089 70.2775L96.0765 72.2724L96.0765 72.494L102.461 72.494L102.461 74.489Z" fill-rule="nonzero" fill="#FFFFFF"/>
	<path id="path" d="M102.461 29.8022C102.418 30.1497 102.354 30.4932 102.269 30.833C102.194 31.1974 102.063 31.541 101.875 31.8637C101.711 32.1513 101.486 32.3803 101.2 32.5508C100.884 32.7498 100.539 32.8458 100.164 32.839L96.6057 32.839C94.9844 32.839 94.1624 31.4647 94.1624 28.7272C94.1836 27.7781 94.2775 26.8361 94.4439 25.901L95.8964 25.901C95.6847 26.8204 95.5684 27.7514 95.5473 28.6939C95.5473 29.0375 95.5473 29.2924 95.5473 29.4808C95.5733 29.6809 95.6184 29.8767 95.6825 30.0682C95.79 30.5277 96.0827 30.7419 96.5607 30.7111L100.006 30.7111C100.738 30.7111 101.132 29.9685 101.132 28.4944C101.102 27.596 100.982 26.7094 100.772 25.8345L102.247 25.8345C102.424 26.7871 102.514 27.7476 102.517 28.7161C102.537 29.0855 102.48 29.4328 102.461 29.8022Z" fill-rule="evenodd" fill="#FFFFFF"/>
	<path id="polygon" d="M94.23 41.5059L94.23 34.6123L95.6149 34.6123L95.6149 39.378L97.4727 39.378L97.4727 35.1886L98.8576 35.1886L98.8576 39.378L100.941 39.378L100.941 34.4793L102.326 34.4793L102.326 41.5059L94.23 41.5059Z" fill-rule="nonzero" fill="#FFFFFF"/>
	<path id="polygon" d="M94.23 93.1196L94.23 86.2259L95.6149 86.2259L95.6149 90.9805L97.4727 90.9805L97.4727 86.8022L98.8576 86.8022L98.8576 90.9805L100.941 90.9805L100.941 86.0929L102.326 86.0929L102.326 93.1196L94.23 93.1196Z" fill-rule="nonzero" fill="#FFFFFF"/>
	<path id="path" d="M95.5248 98.5946C95.5248 99.7029 95.8175 100.202 96.403 100.202C96.6906 100.2 96.8858 100.067 96.9885 99.8026C97.2439 99.1995 97.4428 98.5788 97.5853 97.9406C97.7397 97.1964 98.0325 96.5093 98.4635 95.8792C98.8684 95.4395 99.3713 95.2437 99.9723 95.2918C100.8 95.257 101.449 95.5747 101.92 96.2449C102.413 97.0138 102.639 97.8524 102.596 98.7608C102.576 99.707 102.478 100.645 102.303 101.576L102.213 102.108L100.918 101.897C101.064 100.578 101.143 99.5699 101.143 98.8716C101.143 97.8298 100.783 97.3089 100.017 97.3089C99.7393 97.3058 99.5404 97.4277 99.4206 97.6747C99.1988 98.1345 99.0412 98.6148 98.9477 99.1154C98.7957 99.9815 98.4767 100.783 97.9906 101.52C97.6073 102.013 97.1006 102.246 96.4706 102.219C95.6769 102.266 95.0614 101.964 94.624 101.31C94.1812 100.531 93.9823 99.6964 94.0273 98.8051C94.0439 97.8727 94.1227 96.9454 94.2637 96.0233L94.3538 95.5024L95.6712 95.6575C95.5923 97.0429 95.5248 98.0293 95.5248 98.5946Z" fill-rule="nonzero" fill="#FFFFFF"/>
	<path id="path" d="M99.6345 82.0144L102.461 82.0144L102.461 84.0647L94.1287 84.0647L94.1287 80.1413C94.1287 77.7585 95.0294 76.5615 96.8534 76.5615C97.9947 76.526 98.7904 77.0247 99.2404 78.0577L102.461 76.6059L102.461 78.8225L99.6345 80.0305L99.6345 82.0144ZM97.833 79.022C97.5625 78.7655 97.2397 78.6473 96.8647 78.6673C96.4904 78.6495 96.1752 78.7751 95.9189 79.0441C95.6495 79.3665 95.5294 79.7359 95.5586 80.1524L95.5586 82.0255L98.1933 82.0255L98.1933 80.1081C98.2265 79.6968 98.1064 79.3347 97.833 79.022Z" fill-rule="nonzero" fill="#FFFFFF"/>
	<ellipse id="circle" cx="95.254616" cy="45.008148" rx="1.204765" ry="1.185883" fill="url(#paint_radial_2_43_0)"/>
	<path id="path" d="M96.4819 49.4192L101.335 49.4192C102.084 49.4149 102.489 49.0455 102.551 48.3109C102.554 47.9782 102.436 47.605 102.199 47.3687C101.961 47.1323 101.673 47.0142 101.335 47.0142L99.5895 47.0142C97.9993 47.1219 96.9634 47.9236 96.4819 49.4192Z" fill-rule="nonzero" fill="url(#paint_linear_2_45_0)"/>
	<path id="path" d="M97.1236 47.0142L95.9977 47.0142C95.4585 47.0111 94.9983 47.1972 94.617 47.5725C94.2357 47.9478 94.0467 48.4008 94.0498 48.9315L94.0498 51.802C94.0152 52.1568 94.1196 52.4662 94.3631 52.73C94.6066 52.9938 94.9094 53.1257 95.2715 53.1257C95.6336 53.1257 95.9364 52.9938 96.1799 52.73C96.4234 52.4662 96.5278 52.1568 96.4931 51.802L96.4931 49.4303C96.4931 49.3084 96.4931 49.1864 96.4931 49.0645C96.4818 48.3151 96.692 47.6316 97.1236 47.0142Z" fill-rule="nonzero" fill="url(#paint_radial_2_46_0)"/>
	<path id="path" d="M99.6007 47.0142L97.1237 47.0142C96.682 47.6244 96.4606 48.3042 96.4594 49.0535C96.4594 49.1754 96.4594 49.2973 96.4594 49.4192C96.9467 47.9091 97.9938 47.1074 99.6007 47.0142Z" fill-rule="nonzero" fill="url(#paint_linear_2_47_0)"/>
	<path id="path" d="M99.6007 47.0142L97.1237 47.0142C96.682 47.6244 96.4606 48.3042 96.4594 49.0535C96.4594 49.1754 96.4594 49.2973 96.4594 49.4192C96.9467 47.9091 97.9938 47.1074 99.6007 47.0142Z" fill-rule="nonzero" fill="url(#paint_linear_2_48_0)"/>
	<path id="path" d="M96.4819 49.4192C96.4064 48.5427 96.6203 47.741 97.1237 47.0142C96.5814 47.7309 96.3674 48.5326 96.4819 49.4192Z" fill-rule="nonzero" fill="#8DFFFF"/>
	<path id="path" d="M96.4819 49.4192C96.9883 47.9618 98.0205 47.1602 99.5782 47.0142C98.8533 47.046 98.206 47.2832 97.6364 47.7256C97.0667 48.1681 96.6819 48.7326 96.4819 49.4192Z" fill-rule="nonzero" fill="#8DFFFF"/>
	<path id="path" d="M102.359 55.8252L102.359 53.664L94.2638 56.867L94.2638 59.4604L102.359 62.7853L102.359 60.6795L99.8935 59.7707L99.8935 56.7561L102.359 55.8252ZM95.8851 58.208L98.0582 57.41L98.7 57.1662L98.7 59.3052L95.8851 58.208Z" fill-rule="nonzero" fill="#FFFFFF"/>
	<defs>
		<radialGradient id="paint_radial_2_43_0" cx="0.000000" cy="0.000000" r="1.000000" gradientUnits="userSpaceOnUse" gradientTransform="translate(95.2639 45.0061) rotate(-90) scale(1.18583 1.20471)">
			<stop stop-color="#72F3B8"/>
			<stop offset="0.270000" stop-color="#6AF0C4"/>
			<stop offset="0.760000" stop-color="#56E8E4"/>
			<stop offset="1.000000" stop-color="#4AE3F6"/>
		</radialGradient>
		<linearGradient id="paint_linear_2_45_0" x1="111.963615" y1="48.222279" x2="96.493195" y2="48.222279" gradientUnits="userSpaceOnUse">
			<stop stop-color="#00BBFF"/>
			<stop offset="0.540000" stop-color="#00BBFF"/>
			<stop offset="1.000000" stop-color="#4C2EEB"/>
		</linearGradient>
		<radialGradient id="paint_radial_2_46_0" cx="0.000000" cy="0.000000" r="1.000000" gradientUnits="userSpaceOnUse" gradientTransform="translate(94.3555 45.0061) rotate(-90) scale(1.18582 0.296349)">
			<stop stop-color="#72F3B8"/>
			<stop offset="0.270000" stop-color="#6AF0C4"/>
			<stop offset="0.760000" stop-color="#56E8E4"/>
			<stop offset="1.000000" stop-color="#4AE3F6"/>
		</radialGradient>
		<linearGradient id="paint_linear_2_47_0" x1="98.035736" y1="60.402508" x2="98.035736" y2="40.065056" gradientUnits="userSpaceOnUse">
			<stop stop-color="#00BBFF"/>
			<stop offset="0.110000" stop-color="#00BBFF"/>
			<stop offset="0.210000" stop-color="#04B3FE"/>
			<stop offset="0.360000" stop-color="#119CFB"/>
			<stop offset="0.550000" stop-color="#2577F5"/>
			<stop offset="0.760000" stop-color="#4044EE"/>
			<stop offset="0.850000" stop-color="#4C2EEB"/>
			<stop offset="1.000000" stop-color="#4C2EEB"/>
		</linearGradient>
		<linearGradient id="paint_linear_2_48_0" x1="98.035736" y1="61.333443" x2="98.035736" y2="37.294304" gradientUnits="userSpaceOnUse">
			<stop stop-color="#27E2CE"/>
			<stop offset="0.380000" stop-color="#2AD6CE"/>
			<stop offset="1.000000" stop-color="#32B9CE"/>
		</linearGradient>
	</defs>
</svg>
