<svg width="341.200043" height="421.321259" viewBox="0 0 341.2 421.321" stroke-width="1" fill="none" xmlns="http://www.w3.org/2000/svg" xmlns:xlink="http://www.w3.org/1999/xlink">
	<desc>
			Created with Pixso.
	</desc>
	<g filter="url(#filter_2_52_dd)">
		<path id="path" d="M215.716 0L217.971 14.9857L223.826 63.1114L296.297 63.1114L295.545 96.8935L235.337 129.434L243.684 175.376L337.2 175.376L337.2 218.877L328.022 223.844L255.591 262.978L272.918 382.051L331.385 382.051L331.385 413.321L9.85463 413.321L9.85463 382.051L74.1765 382.051L88.2593 263.535L4 206.675L4 175.376L103.371 175.376L108.434 130.205L45.6945 96.9792L44.9429 63.1114L120.104 63.1114L125.919 14.9857L128.174 0L215.716 0ZM232.014 275.821L128.174 319.453L235.337 319.453L232.014 275.821ZM235.337 337.821L128.174 382.094L243.724 382.094L235.337 337.821L235.337 337.821ZM103.41 375.8L208.635 326.821L109.225 331.956L103.41 375.8ZM109.225 312.321L232.014 256.821L115.08 263.535L109.225 312.321ZM226.16 81.4368L232.014 106.484L288.485 81.4368L226.16 81.4368ZM115.08 106.484L115.08 81.4368L59.985 81.4368L115.08 106.484ZM150.129 63.1114L197.361 63.1114L197.361 23.3213L150.129 23.3213L150.129 63.1114ZM208.635 131.532L138.459 131.532L128.174 175.376L217.971 175.376L208.635 131.532ZM197.361 81.4368L144.313 81.4368L138.459 112.907L202.781 112.907L197.361 81.4368ZM243.724 194.172L249.539 238.016L328.022 194.172L243.724 194.172ZM97.5555 238.016L97.5555 194.172L19.985 194.172L97.5555 238.016ZM220.266 194.172L128.174 194.172L120.104 244.268L226.16 244.268L220.266 194.172Z" fill-rule="nonzero" fill="#18BA83"/>
	</g>
	<defs>
		<filter id="filter_2_52_dd" x="0.000000" y="0.000000" width="341.200043" height="421.321259" filterUnits="userSpaceOnUse" color-interpolation-filters="sRGB">
			<feFlood flood-opacity="0" result="BackgroundImageFix"/>
			<feColorMatrix in="SourceAlpha" type="matrix" values="0 0 0 0 0 0 0 0 0 0 0 0 0 0 0 0 0 0 127 0"/>
			<feOffset dx="0" dy="4"/>
			<feGaussianBlur stdDeviation="1.33333"/>
			<feColorMatrix type="matrix" values="0 0 0 0 0.41569 0 0 0 0 0.94118 0 0 0 0 0.76863 0 0 0 1 0"/>
			<feBlend mode="normal" in2="BackgroundImageFix" result="effect_dropShadow_1"/>
			<feBlend mode="normal" in="SourceGraphic" in2="effect_dropShadow_1" result="shape"/>
		</filter>
	</defs>
</svg>
