<svg width="408.000000" height="689.500000" viewBox="0 0 408 689.5" fill="none" xmlns="http://www.w3.org/2000/svg" xmlns:xlink="http://www.w3.org/1999/xlink">
	<desc>
			Created with Pixso.
	</desc>
	<line id="直线 1" x1="60.000031" y1="164.500031" x2="348.000031" y2="162.500031" stroke="#4F61CD" stroke-width="3.000000"/>
	<line id="直线 4" x1="60.000031" y1="325.500031" x2="348.000031" y2="327.500031" stroke="#4F61CD" stroke-width="3.000000"/>
	<line id="直线 5" x1="155.000031" y1="231.500031" x2="155.000031" y2="325.500031" stroke="#4F61CD" stroke-width="3.000000"/>
	<line id="直线 5" x1="254.000031" y1="231.500031" x2="254.000031" y2="327.500031" stroke="#4F61CD" stroke-width="3.000000"/>
	<line id="直线 7" x1="347.502319" y1="317.006958" x2="347.502319" y2="338.006958" stroke="#4F61CD" stroke-width="3.000000"/>
	<line id="直线 8" x1="60.030487" y1="153.500031" x2="155.000046" y2="128.500046" stroke="#4F61CD" stroke-width="3.000000"/>
	<line id="直线 9" x1="348.000000" y1="152.500061" x2="254.000000" y2="128.500031" stroke="#4F61CD" stroke-width="3.000000"/>
	<line id="直线 10" x1="155.000000" y1="164.500061" x2="254.000031" y2="327.500031" stroke="#4F61CD" stroke-width="3.000000"/>
	<line id="直线 11" x1="254.000000" y1="164.500031" x2="155.000092" y2="325.500061" stroke="#4F61CD" stroke-width="3.000000"/>
	<line id="直线 9" x1="348.000000" y1="317.500061" x2="254.000000" y2="293.500031" stroke="#4F61CD" stroke-width="3.000000"/>
	<circle id="椭圆 1" cx="348.000000" cy="170.500031" r="6.000000" fill="#4F61CD"/>
	<line id="直线 12" x1="348.000000" y1="152.500031" x2="348.000000" y2="164.500031" stroke="#4F61CD" stroke-width="3.000000"/>
	<line id="直线 13" x1="155.000031" y1="328.500000" x2="107.000092" y2="669.500000" stroke="#4F61CD" stroke-width="3.000000"/>
	<line id="直线 14" x1="254.000061" y1="328.500061" x2="301.000092" y2="669.500122" stroke="#4F61CD" stroke-width="3.000000"/>
	<line id="直线 15" x1="254.000000" y1="328.500000" x2="131.000031" y2="499.500000" stroke="#4F61CD" stroke-width="3.000000"/>
	<line id="直线 16" x1="132.000000" y1="499.500000" x2="301.000000" y2="669.500000" stroke="#4F61CD" stroke-width="3.000000"/>
	<path id="矢量 1" d="M153.5 31.5L153.5 231.5L156.5 231.5L156.5 31.5Q156.5 19.6949 164.847 11.3475Q173.195 3 185 3L224 3Q235.805 3 244.153 11.3475Q252.5 19.6949 252.5 31.5L252.5 231.5L255.5 231.5L255.5 31.5Q255.5 18.4523 246.274 9.22614Q237.048 0 224 0L185 0Q171.952 0 162.726 9.22614Q153.5 18.4523 153.5 31.5Z" fill-rule="evenodd" fill="#4F61CD"/>
	<line id="直线 2" x1="155.000000" y1="27.500000" x2="254.000031" y2="164.500000" stroke="#4F61CD" stroke-width="3.000000"/>
	<line id="直线 3" x1="253.999969" y1="27.499985" x2="155.000000" y2="164.500000" stroke="#4F61CD" stroke-width="3.000000"/>
	<line id="直线 6" x1="60.000031" y1="153.500000" x2="60.030464" y2="174.500000" stroke="#4F61CD" stroke-width="3.000000"/>
	<circle id="椭圆 1" cx="60.000000" cy="172.500000" r="6.000000" fill="#4F61CD"/>
	<circle id="椭圆 1" cx="347.000000" cy="335.500000" r="6.000000" fill="#4F61CD"/>
	<line id="直线 8" x1="60.030457" y1="315.500000" x2="155.000015" y2="290.500000" stroke="#4F61CD" stroke-width="3.000000"/>
	<line id="直线 6" x1="60.000031" y1="315.500000" x2="60.030464" y2="336.500000" stroke="#4F61CD" stroke-width="3.000000"/>
	<circle id="椭圆 1" cx="60.000000" cy="334.500000" r="6.000000" fill="#4F61CD"/>
	<rect id="矩形 1" y="668.500000" width="408.000000" height="21.000000" fill="#4F61CD"/>
	<line id="直线 17" x1="155.000092" y1="328.500000" x2="277.000061" y2="499.500000" stroke="#4F61CD" stroke-width="3.000000"/>
	<line id="直线 18" x1="280.000092" y1="501.500000" x2="107.000076" y2="669.500000" stroke="#4F61CD" stroke-width="3.000000"/>
	<defs/>
</svg>
