<svg width="69.258759" height="8.114899" viewBox="0 0 69.2588 8.1149" fill="none" xmlns="http://www.w3.org/2000/svg" xmlns:xlink="http://www.w3.org/1999/xlink">
	<desc>
			Created with Pixso.
	</desc>
	<defs>
		<radialGradient id="paint_radial_5_9_0" cx="0.000000" cy="0.000000" r="1.000000" gradientUnits="userSpaceOnUse" gradientTransform="translate(51.857 1.0937) rotate(-90) scale(1.06995 1.06996)">
			<stop stop-color="#72F3B8"/>
			<stop offset="0.270000" stop-color="#6AF0C4"/>
			<stop offset="0.760000" stop-color="#56E8E4"/>
			<stop offset="1.000000" stop-color="#4AE3F6"/>
		</radialGradient>
		<linearGradient id="paint_linear_5_10_0" x1="48.968842" y1="15.935578" x2="48.968842" y2="2.185575" gradientUnits="userSpaceOnUse">
			<stop stop-color="#00BBFF"/>
			<stop offset="0.540000" stop-color="#00BBFF"/>
			<stop offset="1.000000" stop-color="#4C2EEB"/>
		</linearGradient>
		<radialGradient id="paint_radial_5_11_0" cx="0.000000" cy="0.000000" r="1.000000" gradientUnits="userSpaceOnUse" gradientTransform="translate(51.8606 0.286997) rotate(0) scale(1.06995 0.2632)">
			<stop stop-color="#72F3B8"/>
			<stop offset="0.270000" stop-color="#6AF0C4"/>
			<stop offset="0.760000" stop-color="#56E8E4"/>
			<stop offset="1.000000" stop-color="#4AE3F6"/>
		</radialGradient>
	</defs>
	<path id="path" d="M25.2588 7.49548L25.2588 0.225494L28.3888 0.225494L29.9788 5.52548L31.5588 0.225494L34.6788 0.225494L34.6788 7.49548L32.8488 7.49548L32.8488 1.87549L32.6488 1.87549L30.8888 7.1655L29.0588 7.1655L27.2588 1.82547L27.0588 1.82547L27.0588 7.49548L25.2588 7.49548Z" fill-rule="nonzero" fill="#FFFFFF"/>
	<path id="path" d="M65.5788 7.49551C65.2653 7.45782 64.9553 7.40115 64.6488 7.32553C64.3199 7.25885 64.0099 7.14218 63.7188 6.97549C63.4593 6.83008 63.2526 6.63007 63.0988 6.37552C62.9193 6.09506 62.8326 5.78839 62.8388 5.45551L62.8388 2.2955C62.8388 0.855499 64.0788 0.125519 66.5488 0.125519C67.4051 0.144318 68.2551 0.227661 69.0988 0.375519L69.0988 1.6655C68.2692 1.47751 67.4292 1.37418 66.5788 1.3555C66.2688 1.3555 66.0388 1.3555 65.8688 1.3555C65.6883 1.37857 65.5116 1.41858 65.3388 1.47549C64.9242 1.57101 64.7309 1.83102 64.7588 2.25549L64.7588 5.31549C64.7588 5.96548 65.4288 6.31549 66.7588 6.31549C67.5694 6.28873 68.3694 6.18207 69.1588 5.99548L69.1588 7.30548C68.2993 7.46313 67.4326 7.54312 66.5588 7.5455C66.2254 7.56299 65.9121 7.513 65.5788 7.49551Z" fill-rule="evenodd" fill="#FFFFFF"/>
	<path id="polygon" d="M55.0188 0.185547L61.2388 0.185547L61.2388 1.41556L56.9388 1.41556L56.9388 3.06555L60.7188 3.06555L60.7188 4.29556L56.9388 4.29556L56.9388 6.14554L61.3588 6.14554L61.3588 7.37555L55.0188 7.37555L55.0188 0.185547Z" fill-rule="nonzero" fill="#FFFFFF"/>
	<path id="polygon" d="M8.44876 0.185547L14.6688 0.185547L14.6688 1.41556L10.3788 1.41556L10.3788 3.06555L14.1488 3.06555L14.1488 4.29556L10.3788 4.29556L10.3788 6.14554L14.7888 6.14554L14.7888 7.37555L8.44876 7.37555L8.44876 0.185547Z" fill-rule="nonzero" fill="#FFFFFF"/>
	<path id="path" d="M3.50876 1.33551C2.50876 1.33551 2.05876 1.59549 2.05876 2.11551C2.06016 2.37094 2.18016 2.54428 2.41876 2.63553C2.96294 2.86234 3.52293 3.03903 4.09876 3.1655C4.77027 3.3027 5.39027 3.56271 5.95876 3.94553C6.35553 4.30511 6.5322 4.7518 6.48876 5.28549C6.52018 6.02029 6.23351 6.59695 5.62876 7.0155C4.93505 7.45367 4.17838 7.65369 3.35876 7.61551C2.50502 7.59802 1.65836 7.51135 0.818764 7.3555L0.33876 7.27551L0.528763 6.12552C1.71877 6.25552 2.62876 6.32553 3.25877 6.32553C4.19877 6.32553 4.66877 6.00552 4.66877 5.32553C4.67159 5.07858 4.56158 4.90195 4.33877 4.7955C3.92384 4.59854 3.49051 4.45856 3.03876 4.37552C2.25732 4.24054 1.534 3.95718 0.868767 3.52551C0.42392 3.18509 0.213921 2.73511 0.23877 2.17551C0.195656 1.47061 0.468994 0.92395 1.05877 0.535492C1.7613 0.142242 2.51463 -0.0344238 3.31877 0.00552368C4.16006 0.0202332 4.99673 0.0902405 5.82877 0.215515L6.29877 0.295502L6.15878 1.46552C4.90876 1.39551 4.01876 1.33551 3.50876 1.33551Z" fill-rule="nonzero" fill="#FFFFFF"/>
	<path id="path" d="M18.4688 4.9855L18.4688 7.49551L16.6188 7.49551L16.6188 0.09552L20.1588 0.09552C22.3088 0.09552 23.3888 0.895538 23.3888 2.51553C23.4208 3.52917 22.9708 4.23584 22.0388 4.63553L23.3488 7.49551L21.3488 7.49551L20.2588 4.9855L18.4688 4.9855ZM21.1688 3.38553C21.4001 3.14526 21.5068 2.85858 21.4888 2.52551C21.5048 2.19312 21.3915 1.91312 21.1488 1.68552C20.8579 1.4462 20.5245 1.33954 20.1488 1.36551L18.4588 1.36551L18.4588 3.70551L20.1888 3.70551C20.5599 3.73499 20.8865 3.62833 21.1688 3.38553Z" fill-rule="nonzero" fill="#FFFFFF"/>
	<ellipse id="circle" cx="51.858742" cy="1.095551" rx="1.070007" ry="1.070000" transform="rotate(90 51.8587 1.09555)" fill="url(#paint_radial_5_9_0)"/>
	<path id="path" d="M47.8788 2.18552L47.8788 6.49551C47.8826 7.16061 48.2159 7.5206 48.8788 7.57553C49.1789 7.57831 49.5156 7.47406 49.7289 7.26276C49.9421 7.05148 50.0488 6.79572 50.0488 6.49551L50.0488 4.94553C49.9516 3.53323 49.2282 2.61322 47.8788 2.18552Z" fill-rule="nonzero" fill="url(#paint_linear_5_10_0)"/>
	<path id="path" d="M50.0488 2.75552L50.0488 1.75552C50.0516 1.27664 49.8836 0.867889 49.545 0.529266C49.2064 0.190643 48.7976 0.0227051 48.3188 0.0255127L45.7288 0.0255127C45.4086 -0.00527954 45.1295 0.0874634 44.8915 0.303711C44.6534 0.519989 44.5344 0.78891 44.5344 1.1105C44.5344 1.43213 44.6534 1.70105 44.8915 1.9173C45.1295 2.13358 45.4086 2.22629 45.7288 2.19553L47.8688 2.19553C47.9788 2.19553 48.0888 2.19553 48.1988 2.19553C48.875 2.18546 49.4916 2.37213 50.0488 2.75552Z" fill-rule="nonzero" fill="url(#paint_radial_5_11_0)"/>
	<path id="path" d="M47.8788 2.18552C49.1937 2.63535 49.917 3.552 50.0488 4.93552C50.02 4.29169 49.806 3.71683 49.4068 3.21091C49.0076 2.70499 48.4982 2.36319 47.8788 2.18552Z" fill-rule="nonzero" fill="#8DFFFF"/>
	<path id="path" d="M42.0988 7.40555L44.0488 7.40555L41.1588 0.215546L38.8188 0.215546L35.8188 7.40555L37.7188 7.40555L38.5388 5.21555L41.2588 5.21555L42.0988 7.40555ZM39.9488 1.65555L40.6688 3.58554L40.8888 4.15555L38.9588 4.15555L39.9488 1.65555Z" fill-rule="nonzero" fill="#FFFFFF"/>
</svg>
